<?xml version="1.0" encoding="utf-8"?>
<!-- Generator: Adobe Illustrator 25.0.0, SVG Export Plug-In . SVG Version: 6.00 Build 0)  -->
<svg version="1.1" id="Livello_1" xmlns="http://www.w3.org/2000/svg" xmlns:xlink="http://www.w3.org/1999/xlink" x="0px" y="0px"
	 viewBox="0 0 410.22 192.97" style="enable-background:new 0 0 410.22 192.97;" xml:space="preserve">
<style type="text/css">
	.st0{fill:none;stroke:#D9D9D9;stroke-width:0.3985;stroke-miterlimit:10;}
	.st1{fill:none;stroke:#000000;stroke-width:0.3985;stroke-miterlimit:10;}
	.st2{font-family:'NimbusSanL-Regu';}
	.st3{font-size:8.9664px;}
	.st4{clip-path:url(#SVGID_2_);fill:#A9D18E;}
	.st5{clip-path:url(#SVGID_2_);fill:none;stroke:#A9D18E;stroke-width:0.3985;stroke-miterlimit:10;}
	.st6{clip-path:url(#SVGID_2_);fill:#9DC2E6;}
	.st7{clip-path:url(#SVGID_2_);fill:none;stroke:#9DC2E6;stroke-width:0.3985;stroke-miterlimit:10;}
	.st8{clip-path:url(#SVGID_2_);fill:#F3B183;}
	.st9{clip-path:url(#SVGID_2_);fill:none;stroke:#F3B183;stroke-width:0.3985;stroke-miterlimit:10;}
	.st10{letter-spacing:2;}
	.st11{font-size:9.9626px;}
	.st12{fill:#FFFFFF;}
	.st13{fill:#A9D18E;}
	.st14{fill:none;stroke:#A9D18E;stroke-width:0.3985;stroke-miterlimit:10;}
	.st15{letter-spacing:-1;}
	.st16{fill:#9DC2E6;}
	.st17{fill:none;stroke:#9DC2E6;stroke-width:0.3985;stroke-miterlimit:10;}
	.st18{fill:#F3B183;}
	.st19{fill:none;stroke:#F3B183;stroke-width:0.3985;stroke-miterlimit:10;}
</style>
<path class="st0" d="M42.4,54.14h367.62 M42.4,103h367.62 M42.4,151.85h367.62"/>
<rect x="42.4" y="24.83" class="st1" width="367.62" height="127.02"/>
<text transform="matrix(1 0 0 1 58.3809 166.2316)"><tspan x="0" y="0" class="st2 st3">Co</tspan><tspan x="10.12" y="0" class="st2 st3">r</tspan><tspan x="12.97" y="0" class="st2 st3">a15</tspan></text>
<text transform="matrix(1 0 0 1 119.6499 166.2316)"><tspan x="0" y="0" class="st2 st3">Co</tspan><tspan x="10.12" y="0" class="st2 st3">r</tspan><tspan x="12.97" y="0" class="st2 st3">a30</tspan></text>
<text transform="matrix(1 0 0 1 180.9189 166.2316)"><tspan x="0" y="0" class="st2 st3">Co</tspan><tspan x="10.12" y="0" class="st2 st3">r</tspan><tspan x="12.97" y="0" class="st2 st3">a60</tspan></text>
<text transform="matrix(1 0 0 1 242.1885 166.2316)"><tspan x="0" y="0" class="st2 st3">Co</tspan><tspan x="10.12" y="0" class="st2 st3">r</tspan><tspan x="12.97" y="0" class="st2 st3">a90</tspan></text>
<text transform="matrix(1 0 0 1 300.9648 166.2316)"><tspan x="0" y="0" class="st2 st3">Co</tspan><tspan x="10.12" y="0" class="st2 st3">r</tspan><tspan x="12.97" y="0" class="st2 st3">a120</tspan></text>
<text transform="matrix(1 0 0 1 362.2344 166.2316)"><tspan x="0" y="0" class="st2 st3">Co</tspan><tspan x="10.12" y="0" class="st2 st3">r</tspan><tspan x="12.97" y="0" class="st2 st3">a150</tspan></text>
<text transform="matrix(1 0 0 1 33.894 154.9367)" class="st2 st3">0</text>
<text transform="matrix(1 0 0 1 28.9092 106.0822)" class="st2 st3">50</text>
<text transform="matrix(1 0 0 1 23.9238 57.2282)" class="st2 st3">100</text>
<g>
	<defs>
		<rect id="SVGID_1_" x="42.4" y="24.83" width="367.62" height="127.02"/>
	</defs>
	<clipPath id="SVGID_2_">
		<use xlink:href="#SVGID_1_"  style="overflow:visible;"/>
	</clipPath>
	<path class="st4" d="M356.13,151.85h14.17V39.46h-14.17V151.85z M294.86,151.85h14.17V55.78h-14.17V151.85z M233.59,151.85h14.17
		V65.01h-14.17V151.85z M172.32,151.85h14.17V83.7h-14.17V151.85z M111.05,151.85h14.17v-64.9h-14.17V151.85z M49.78,151.85h14.17
		V93.96H49.78V151.85z"/>
	<path class="st5" d="M356.13,151.85h14.17V39.46h-14.17V151.85z M294.86,151.85h14.17V55.78h-14.17V151.85z M233.59,151.85h14.17
		V65.01h-14.17V151.85z M172.32,151.85h14.17V83.7h-14.17V151.85z M111.05,151.85h14.17v-64.9h-14.17V151.85z M49.78,151.85h14.17
		V93.96H49.78V151.85z"/>
	<path class="st6" d="M372.3,151.85h14.17v-49.24H372.3V151.85z M311.03,151.85h14.17v-35.73h-14.17V151.85z M249.76,151.85h14.17
		v-17.88h-14.17V151.85z M188.49,151.85h14.17v-8.67h-14.17V151.85z M127.22,151.85h14.17v-2.37h-14.17V151.85z M65.95,151.85h14.17
		v-0.76H65.95V151.85z"/>
	<path class="st7" d="M372.3,151.85h14.17v-49.24H372.3V151.85z M311.03,151.85h14.17v-35.73h-14.17V151.85z M249.76,151.85h14.17
		v-17.88h-14.17V151.85z M188.49,151.85h14.17v-8.67h-14.17V151.85z M127.22,151.85h14.17v-2.37h-14.17V151.85z M65.95,151.85h14.17
		v-0.76H65.95V151.85z"/>
	<path class="st8" d="M388.47,151.85h14.17v-40.18h-14.17V151.85z M327.2,151.85h14.17v-28.96H327.2V151.85z M265.93,151.85h14.17
		v-14.56h-14.17V151.85z M204.66,151.85h14.17v-6.97h-14.17V151.85z M143.39,151.85h14.17v-1.75h-14.17V151.85z M82.12,151.85h14.17
		v-0.51H82.12V151.85z"/>
	<path class="st9" d="M388.47,151.85h14.17v-40.18h-14.17V151.85z M327.2,151.85h14.17v-28.96H327.2V151.85z M265.93,151.85h14.17
		v-14.56h-14.17V151.85z M204.66,151.85h14.17v-6.97h-14.17V151.85z M143.39,151.85h14.17v-1.75h-14.17V151.85z M82.12,151.85h14.17
		v-0.51H82.12V151.85z"/>
</g>
<text transform="matrix(1 0 0 1 45.6528 90.2922)" class="st2 st3">59.25</text>
<text transform="matrix(1 0 0 1 106.9229 83.2868)" class="st2 st3">66.42</text>
<text transform="matrix(1 0 0 1 168.1919 80.0329)" class="st2 st3">69.75</text>
<text transform="matrix(1 0 0 1 229.4609 61.341)" class="st2 st3">88.88</text>
<text transform="matrix(1 0 0 1 290.7305 52.1169)" class="st2 st3">98.32</text>
<text transform="matrix(1 0 0 1 349.5069 35.7902)" class="st2 st3">115.03</text>
<text transform="matrix(1 0 0 1 64.312 147.423)" class="st2 st3">0.78</text>
<text transform="matrix(1 0 0 1 125.5811 145.8107)" class="st2 st3">2.43</text>
<text transform="matrix(1 0 0 1 186.8501 139.5178)" class="st2 st3">8.87</text>
<text transform="matrix(1 0 0 1 248.1201 130.3039)" class="st2 st3">18.3</text>
<text transform="matrix(1 0 0 1 306.8965 112.4533)" class="st2 st3">36.57</text>
<text transform="matrix(1 0 0 1 368.165 98.9494)" class="st2 st3">50.39</text>
<text transform="matrix(1 0 0 1 80.478 147.6769)" class="st2 st3">0.52</text>
<text transform="matrix(1 0 0 1 141.7471 146.4357)" class="st2 st3">1.79</text>
<text transform="matrix(1 0 0 1 203.0161 141.218)" class="st2 st3">7.13</text>
<text transform="matrix(1 0 0 1 264.2852 133.6262)" class="st2 st3">14.9</text>
<text transform="matrix(1 0 0 1 323.0625 119.2238)" class="st2 st3">29.64</text>
<text transform="matrix(1 0 0 1 384.3311 108.1554)" class="st2 st3">41.12</text>
<text transform="matrix(1 0 0 1 210.7598 189.4982)" class="st2 st3">Dataset</text>
<text transform="matrix(-1.224647e-16 -1 1 -1.224647e-16 9.8704 126.5734)"><tspan x="0" y="0" class="st2 st3">E</tspan><tspan x="4.41" y="0" class="st2 st3">x</tspan><tspan x="8.3" y="0" class="st2 st3">ecutio</tspan><tspan x="31.74" y="0" class="st2 st3 st10">n</tspan><tspan x="39.2" y="0" class="st2 st3">tim</tspan><tspan x="51.74" y="0" class="st2 st3 st10">e</tspan><tspan x="58.73" y="0" class="st2 st3">(us)</tspan></text>
<text transform="matrix(1 0 0 1 155.4199 10.6628)"><tspan x="0" y="0" class="st2 st11">GC</tspan><tspan x="12.21" y="0" class="st2 st11 st10">N</tspan><tspan x="21.54" y="0" class="st2 st11">in</tspan><tspan x="29.4" y="0" class="st2 st11">f</tspan><tspan x="32.02" y="0" class="st2 st11">erenc</tspan><tspan x="55.25" y="0" class="st2 st11 st10">e</tspan><tspan x="63.01" y="0" class="st2 st11">tim</tspan><tspan x="76.95" y="0" class="st2 st11 st10">e</tspan><tspan x="84.71" y="0" class="st2 st11">compa</tspan><tspan x="113.42" y="0" class="st2 st11">r</tspan><tspan x="116.83" y="0" class="st2 st11">ison</tspan></text>
<rect x="42.6" y="25.03" class="st12" width="246.44" height="16.21"/>
<rect x="42.6" y="25.03" class="st1" width="246.44" height="16.21"/>
<path class="st13" d="M51.76,35.19h2.99v-5.98h-2.99V35.19z M45.79,35.19h2.99v-7.97h-2.99V35.19z"/>
<path class="st14" d="M51.76,35.19h2.99v-5.98h-2.99V35.19z M45.79,35.19h2.99v-7.97h-2.99V35.19z"/>
<text transform="matrix(1 0 0 1 56.9448 35.6911)"><tspan x="0" y="0" class="st2 st3">Py</tspan><tspan x="8.99" y="0" class="st2 st3 st15">T</tspan><tspan x="12.37" y="0" class="st2 st3">orch</tspan></text>
<path class="st16" d="M97.42,35.19h2.99v-5.98h-2.99V35.19z M91.44,35.19h2.99v-7.97h-2.99V35.19z"/>
<path class="st17" d="M97.42,35.19h2.99v-5.98h-2.99V35.19z M91.44,35.19h2.99v-7.97h-2.99V35.19z"/>
<text transform="matrix(1 0 0 1 102.6001 35.6911)"><tspan x="0" y="0" class="st2 st3">Baselin</tspan><tspan x="26.41" y="0" class="st2 st3 st10">e</tspan><tspan x="33.4" y="0" class="st2 st3">accele</tspan><tspan x="56.85" y="0" class="st2 st3">r</tspan><tspan x="59.71" y="0" class="st2 st3">ator</tspan></text>
<path class="st18" d="M191.91,35.19h2.99v-5.98h-2.99V35.19z M185.93,35.19h2.99v-7.97h-2.99V35.19z"/>
<path class="st19" d="M191.91,35.19h2.99v-5.98h-2.99V35.19z M185.93,35.19h2.99v-7.97h-2.99V35.19z"/>
<text transform="matrix(1 0 0 1 197.086 35.7561)"><tspan x="0" y="0" class="st2 st3">Optimi</tspan><tspan x="25.92" y="0" class="st2 st3">z</tspan><tspan x="29.62" y="0" class="st2 st3">e</tspan><tspan x="34.12" y="0" class="st2 st3 st10">d</tspan><tspan x="41.66" y="0" class="st2 st3">accele</tspan><tspan x="65.11" y="0" class="st2 st3">r</tspan><tspan x="67.96" y="0" class="st2 st3">ator</tspan></text>
</svg>
