<?xml version="1.0" encoding="utf-8"?>
<!-- Generator: Adobe Illustrator 25.0.0, SVG Export Plug-In . SVG Version: 6.00 Build 0)  -->
<svg version="1.1" id="Livello_1" xmlns="http://www.w3.org/2000/svg" xmlns:xlink="http://www.w3.org/1999/xlink" x="0px" y="0px"
	 viewBox="0 0 410.2 193" style="enable-background:new 0 0 410.2 193;" xml:space="preserve">
<style type="text/css">
	.st0{fill:#FFFFFF;}
	.st1{fill:none;stroke:#D9D9D9;stroke-width:0.3985;stroke-miterlimit:10;}
	.st2{fill:none;stroke:#000000;stroke-width:0.3985;stroke-miterlimit:10;}
	.st3{font-family:'Sohne-Buch';}
	.st4{font-size:8.9664px;}
	.st5{fill:none;}
	.st6{fill:#A9D18E;}
	.st7{clip-path:url(#SVGID_2_);fill:none;stroke:#A9D18E;stroke-width:0.3985;stroke-miterlimit:10;}
	.st8{fill:#9DC2E6;}
	.st9{clip-path:url(#SVGID_4_);fill:none;stroke:#9DC2E6;stroke-width:0.3985;stroke-miterlimit:10;}
	.st10{fill:#F3B183;}
	.st11{fill:none;stroke:#F3B183;stroke-width:0.3985;stroke-miterlimit:10;}
	.st12{fill:none;stroke:#A9D18E;stroke-width:0.3985;stroke-miterlimit:10;}
	.st13{fill:none;stroke:#9DC2E6;stroke-width:0.3985;stroke-miterlimit:10;}
	.st14{font-size:10px;}
	.st15{font-size:9px;}
	.st16{font-size:8px;}
</style>
<rect class="st0" width="410" height="193"/>
<path class="st1" d="M42.4,54.1H410 M42.4,103H410 M42.4,151.9H410"/>
<rect x="42.4" y="24.8" class="st2" width="367.6" height="127"/>
<text transform="matrix(1 0 0 1 33.894 154.9367)" class="st3 st4">0</text>
<text transform="matrix(1 0 0 1 28.9092 106.0822)" class="st3 st4">50</text>
<text transform="matrix(1 0 0 1 23.9238 57.2282)" class="st3 st4">100</text>
<rect x="42.4" y="24.8" class="st5" width="367.6" height="127"/>
<rect x="356.1" y="39.5" class="st6" width="14.2" height="112.4"/>
<rect x="294.9" y="55.8" class="st6" width="14.2" height="96.1"/>
<rect x="233.6" y="65" class="st6" width="14.2" height="86.8"/>
<rect x="172.3" y="83.7" class="st6" width="14.2" height="68.2"/>
<rect x="111.1" y="86.9" class="st6" width="14.2" height="64.9"/>
<rect x="49.8" y="94" class="st6" width="14.2" height="57.9"/>
<g>
	<g>
		<defs>
			<rect id="SVGID_1_" x="42.4" y="24.8" width="367.6" height="127"/>
		</defs>
		<clipPath id="SVGID_2_">
			<use xlink:href="#SVGID_1_"  style="overflow:visible;"/>
		</clipPath>
		<path class="st7" d="M356.1,151.9h14.2V39.5h-14.2V151.9z M294.9,151.9H309V55.8h-14.2v96.1H294.9z M233.6,151.9h14.2V65h-14.2
			V151.9z M172.3,151.9h14.2V83.7h-14.2V151.9z M111.1,151.9h14.2v-65h-14.2V151.9z M49.8,151.9H64V94H49.8V151.9z"/>
	</g>
</g>
<rect x="42.4" y="24.8" class="st5" width="367.6" height="127"/>
<rect x="372.3" y="102.6" class="st8" width="14.2" height="49.2"/>
<rect x="311" y="116.1" class="st8" width="14.2" height="35.7"/>
<rect x="249.8" y="134" class="st8" width="14.2" height="17.9"/>
<rect x="188.5" y="143.2" class="st8" width="14.2" height="8.7"/>
<rect x="127.2" y="149.5" class="st8" width="14.2" height="2.4"/>
<rect x="65.9" y="151.1" class="st8" width="14.2" height="0.8"/>
<g>
	<g>
		<defs>
			<rect id="SVGID_3_" x="42.4" y="24.8" width="367.6" height="127"/>
		</defs>
		<clipPath id="SVGID_4_">
			<use xlink:href="#SVGID_3_"  style="overflow:visible;"/>
		</clipPath>
		<path class="st9" d="M372.3,151.9h14.2v-49.2h-14.2V151.9z M311,151.9h14.2v-35.7H311V151.9z M249.8,151.9H264V134h-14.2V151.9z
			 M188.5,151.9h14.2v-8.7h-14.2V151.9z M127.2,151.9h14.2v-2.4h-14.2V151.9z M65.9,151.9h14.2v-0.8H65.9V151.9z"/>
	</g>
</g>
<rect x="42.4" y="24.8" class="st5" width="367.6" height="127"/>
<rect x="388.5" y="111.7" class="st10" width="14.2" height="40.2"/>
<rect x="327.2" y="122.9" class="st10" width="14.2" height="29"/>
<rect x="265.9" y="137.3" class="st10" width="14.2" height="14.6"/>
<rect x="204.7" y="144.9" class="st10" width="14.2" height="7"/>
<rect x="143.4" y="150.1" class="st10" width="14.2" height="1.8"/>
<rect x="82.1" y="151.3" class="st10" width="14.2" height="0.5"/>
<rect x="42.4" y="24.8" class="st5" width="367.6" height="127"/>
<rect x="388.5" y="111.7" class="st11" width="14.2" height="40.2"/>
<rect x="327.2" y="122.9" class="st11" width="14.2" height="29"/>
<rect x="265.9" y="137.3" class="st11" width="14.2" height="14.6"/>
<rect x="204.7" y="144.9" class="st11" width="14.2" height="7"/>
<rect x="143.4" y="150.1" class="st11" width="14.2" height="1.8"/>
<rect x="82.1" y="151.3" class="st11" width="14.2" height="0.5"/>
<text transform="matrix(1 0 0 1 45.9172 90.2922)" class="st3 st4">59.25</text>
<text transform="matrix(1 0 0 1 106.9585 83.2868)" class="st3 st4">66.42</text>
<text transform="matrix(1 0 0 1 168.7844 80.0329)" class="st3 st4">69.75</text>
<text transform="matrix(1 0 0 1 229.131 61.341)" class="st3 st4">88.88</text>
<text transform="matrix(1 0 0 1 290.8132 52.1169)" class="st3 st4">98.32</text>
<text transform="matrix(1 0 0 1 351.3793 35.7902)" class="st3 st4">115.03</text>
<text transform="matrix(1 0 0 1 63.7547 146.436)" class="st3 st4">0.78</text>
<text transform="matrix(1 0 0 1 124.5944 144.0261)" class="st3 st4">2.43</text>
<text transform="matrix(1 0 0 1 186.0794 139.8998)" class="st3 st4">8.87</text>
<text transform="matrix(1 0 0 1 248.1023 130.3039)" class="st3 st4">18.3</text>
<text transform="matrix(1 0 0 1 307.2254 110.6164)" class="st3 st4">36.57</text>
<text transform="matrix(1 0 0 1 368.2087 98.9494)" class="st3 st4">50.39</text>
<text transform="matrix(1 0 0 1 80.7274 147.6769)" class="st3 st4">0.52</text>
<text transform="matrix(1 0 0 1 143.1496 146.4357)" class="st3 st4">1.79</text>
<text transform="matrix(1 0 0 1 204.9664 141.218)" class="st3 st4">7.13</text>
<text transform="matrix(1 0 0 1 265.1649 133.6262)" class="st3 st4">14.9</text>
<text transform="matrix(1 0 0 1 323.3241 119.2238)" class="st3 st4">29.64</text>
<text transform="matrix(1 0 0 1 386.6693 108.1554)" class="st3 st4">41.12</text>
<text transform="matrix(1 0 0 1 210.7598 189.4982)" class="st3 st4">Dataset</text>
<rect x="42.6" y="25" class="st0" width="246.4" height="16.2"/>
<rect x="42.6" y="25" class="st2" width="246.4" height="16.2"/>
<path class="st6" d="M51.8,35.2h3v-6h-3V35.2z M45.8,35.2h3v-8h-3V35.2z"/>
<path class="st12" d="M51.8,35.2h3v-6h-3V35.2z M45.8,35.2h3v-8h-3V35.2z"/>
<path class="st8" d="M97.4,35.2h3v-6h-3V35.2z M91.4,35.2h3v-8h-3V35.2z"/>
<path class="st13" d="M97.4,35.2h3v-6h-3V35.2z M91.4,35.2h3v-8h-3V35.2z"/>
<path class="st10" d="M191.9,35.2h3v-6h-3V35.2z M185.9,35.2h3v-8h-3V35.2z"/>
<path class="st11" d="M191.9,35.2h3v-6h-3V35.2z M185.9,35.2h3v-8h-3V35.2z"/>
<text transform="matrix(1 0 0 1 150.5642 11.8136)" class="st3 st14">GCN inference time comparison</text>
<text transform="matrix(6.123234e-17 -1 1 6.123234e-17 10.4578 127.8136)" class="st3 st15">Execution time (us)</text>
<text transform="matrix(1 0 0 1 57.4989 35.19)" class="st3 st16">PyTorch</text>
<text transform="matrix(1 0 0 1 104.0307 35.1901)" class="st3 st16">Baseline accelerator</text>
<text transform="matrix(1 0 0 1 197.8125 35.1902)" class="st3 st16">Optimized accelerator</text>
<text transform="matrix(1 0 0 1 59.292 166.8193)" class="st3 st15">Cora15</text>
<text transform="matrix(1 0 0 1 119.4508 166.8193)" class="st3 st15">Cora30</text>
<text transform="matrix(1 0 0 1 180.6083 166.8193)" class="st3 st15">Cora60</text>
<text transform="matrix(1 0 0 1 241.8781 166.8193)" class="st3 st15">Cora90</text>
<text transform="matrix(1 0 0 1 301.6406 166.8193)" class="st3 st15">Cora120</text>
<text transform="matrix(1 0 0 1 362.8566 166.8193)" class="st3 st15">Cora150</text>
</svg>
