<?xml version="1.0" encoding="utf-8"?>
<!-- Generator: Adobe Illustrator 25.0.0, SVG Export Plug-In . SVG Version: 6.00 Build 0)  -->
<svg version="1.1" id="Livello_1" xmlns="http://www.w3.org/2000/svg" xmlns:xlink="http://www.w3.org/1999/xlink" x="0px" y="0px"
	 viewBox="0 0 216 253.6" style="enable-background:new 0 0 216 253.6;" xml:space="preserve">
<style type="text/css">
	.st0{fill:#FFFFFF;}
	.st1{fill:none;stroke:#000000;stroke-width:0.5;stroke-miterlimit:10;}
	.st2{fill:none;stroke:#000000;stroke-width:0.5;stroke-miterlimit:10;stroke-dasharray:4.0056,4.0056;}
	.st3{fill:none;stroke:#000000;stroke-width:0.5;stroke-miterlimit:10;stroke-dasharray:4.28,4.28;}
	.st4{font-family:'Sohne-Halbfett';}
	.st5{font-size:6px;}
	.st6{fill:#FBF8D1;stroke:#215493;stroke-width:0.8;stroke-miterlimit:10;}
	.st7{font-family:'Sohne-Buch';}
	.st8{fill:#FBF8D1;stroke:#215493;stroke-width:0.6;stroke-miterlimit:10;}
	.st9{fill:#DD5035;}
	.st10{fill:none;stroke:#000000;stroke-width:0.5;stroke-miterlimit:10;stroke-dasharray:4.0533,4.0533;}
	.st11{fill:none;stroke:#5FB157;stroke-width:0.5;stroke-miterlimit:10;}
	.st12{fill:#F8DCCE;stroke:#215493;stroke-width:0.8;stroke-miterlimit:10;}
	.st13{fill:#F8DCCE;stroke:#215493;stroke-width:0.6;stroke-miterlimit:10;}
	.st14{fill:#1C476D;}
	.st15{fill:#4B71B2;}
	.st16{fill:#5DA8DA;}
	.st17{fill:none;stroke:#000000;stroke-width:0.5;stroke-miterlimit:10;stroke-dasharray:4.0798,4.0798;}
	.st18{fill:#F7CD47;}
	.st19{fill:none;stroke:#000000;stroke-width:0.5;stroke-miterlimit:5;}
	.st20{fill:none;stroke:#000000;stroke-width:0.5;stroke-miterlimit:5;stroke-dasharray:4.0928,4.0928;}
	.st21{fill:none;stroke:#000000;stroke-width:0.5;stroke-miterlimit:5;stroke-dasharray:3.1655,3.1655;}
	.st22{fill:none;stroke:#000000;stroke-width:0.5;stroke-miterlimit:10;stroke-dasharray:4.288,4.288;}
	.st23{fill:#C43F52;stroke:#215493;stroke-width:0.8;stroke-miterlimit:10;}
	.st24{fill:#5FB157;}
	.st25{fill:none;stroke:#000000;stroke-width:0.2;stroke-miterlimit:10;}
</style>
<rect class="st0" width="216" height="253.6"/>
<g>
	<g>
		<polyline class="st1" points="200.1,56.6 200.1,58.6 198.1,58.6 		"/>
		<line class="st2" x1="194.1" y1="58.6" x2="19.9" y2="58.6"/>
		<polyline class="st1" points="17.9,58.6 15.9,58.6 15.9,56.6 		"/>
		<line class="st3" x1="15.9" y1="52.3" x2="15.9" y2="20.2"/>
		<polyline class="st1" points="15.9,18 15.9,16 17.9,16 		"/>
		<line class="st2" x1="21.9" y1="16" x2="196.1" y2="16"/>
		<polyline class="st1" points="198.1,16 200.1,16 200.1,18 		"/>
		<line class="st3" x1="200.1" y1="22.3" x2="200.1" y2="54.4"/>
	</g>
</g>
<text transform="matrix(1 0 0 1 20.1285 24.6078)" class="st4 st5">High-Level</text>
<text transform="matrix(1 0 0 1 20.1285 31.8078)" class="st4 st5">Framework</text>
<rect x="81" y="30" class="st6" width="54" height="14.5"/>
<text transform="matrix(1 0 0 1 100.5108 39.2681)" class="st7 st5">PyTorch</text>
<rect x="83.3" y="32.2" class="st8" width="10.2" height="10.2"/>
<g>
	<path class="st9" d="M90.5,35.8L90,36.3c0.9,0.9,0.9,2.3,0,3.2c-0.9,0.9-2.3,0.9-3.2,0c-0.9-0.9-0.9-2.3,0-3.2l0,0l1.4-1.4l0.2-0.2
		l0,0v-1.1l-2.2,2.2c-1.2,1.2-1.2,3.1,0,4.3s3.1,1.2,4.3,0C91.7,38.9,91.7,37,90.5,35.8z"/>
	<circle class="st9" cx="89.4" cy="35.3" r="0.4"/>
</g>
<g>
	<g>
		<polyline class="st1" points="200.1,121.3 200.1,123.3 198.1,123.3 		"/>
		<line class="st2" x1="194.1" y1="123.3" x2="19.9" y2="123.3"/>
		<polyline class="st1" points="17.9,123.3 15.9,123.3 15.9,121.3 		"/>
		<line class="st10" x1="15.9" y1="117.3" x2="15.9" y2="70.7"/>
		<polyline class="st1" points="15.9,68.7 15.9,66.7 17.9,66.7 		"/>
		<line class="st2" x1="21.9" y1="66.7" x2="196.1" y2="66.7"/>
		<polyline class="st1" points="198.1,66.7 200.1,66.7 200.1,68.7 		"/>
		<line class="st10" x1="200.1" y1="72.7" x2="200.1" y2="119.3"/>
	</g>
</g>
<text transform="matrix(1 0 0 1 20.1285 76.062)" class="st4 st5">Torch MLIR</text>
<line class="st11" x1="108" y1="71.6" x2="108" y2="45"/>
<rect x="81" y="73.5" class="st12" width="54" height="14.6"/>
<text transform="matrix(1 0 0 1 92.181 82.7851)" class="st7 st5">TorchScript</text>
<rect x="81" y="101.9" class="st12" width="54" height="14.6"/>
<text transform="matrix(1 0 0 1 100.5107 111.1315)" class="st7 st5">MLIR IR</text>
<rect x="83.3" y="104.1" class="st13" width="10.2" height="10.2"/>
<g id="Full_Color">
	<g>
		<path class="st14" d="M91.6,111l-3.2,1.8l-3.2-1.8v-3.7l3.2-1.8l3.2,1.8V111z"/>
		<polygon class="st15" points="88.4,106.5 86.8,107.4 87.7,107.9 88.4,107.5 89.1,107.9 89.9,107.4 		"/>
		<polygon class="st16" points="88.4,111.8 89.9,110.9 89.1,110.5 88.4,110.9 87.7,110.5 86.8,110.9 		"/>
		<polygon class="st0" points="88.4,109.2 86.1,107.8 86.1,110.5 86.9,110 86.9,109.2 88.4,110 89.9,109.2 89.9,110 90.7,110.5 
			90.7,107.8 		"/>
	</g>
</g>
<g>
	<g>
		<polyline class="st1" points="200.1,193.4 200.1,195.4 198.1,195.4 		"/>
		<line class="st2" x1="194.1" y1="195.4" x2="19.9" y2="195.4"/>
		<polyline class="st1" points="17.9,195.4 15.9,195.4 15.9,193.4 		"/>
		<line class="st17" x1="15.9" y1="189.4" x2="15.9" y2="134.3"/>
		<polyline class="st1" points="15.9,132.2 15.9,130.2 17.9,130.2 		"/>
		<line class="st2" x1="21.9" y1="130.2" x2="196.1" y2="130.2"/>
		<polyline class="st1" points="198.1,130.2 200.1,130.2 200.1,132.2 		"/>
		<line class="st17" x1="200.1" y1="136.3" x2="200.1" y2="191.4"/>
	</g>
</g>
<text transform="matrix(0 -1 1 0 23.06 168.7511)" class="st4 st5">Synthesizer</text>
<g>
	<rect x="47.3" y="169.9" class="st18" width="73.6" height="19.8"/>
	<g>
		<polyline class="st19" points="120.8,187.8 120.8,189.8 118.8,189.8 		"/>
		<line class="st20" x1="114.8" y1="189.8" x2="51.3" y2="189.8"/>
		<polyline class="st19" points="49.3,189.8 47.3,189.8 47.3,187.8 		"/>
		<line class="st21" x1="47.3" y1="184.6" x2="47.3" y2="173.5"/>
		<polyline class="st19" points="47.3,171.9 47.3,169.9 49.3,169.9 		"/>
		<line class="st20" x1="53.3" y1="169.9" x2="116.8" y2="169.9"/>
		<polyline class="st19" points="118.8,169.9 120.8,169.9 120.8,171.9 		"/>
		<line class="st21" x1="120.8" y1="175.1" x2="120.8" y2="186.2"/>
	</g>
</g>
<g>
	<rect x="47.3" y="135.9" class="st18" width="73.6" height="19.8"/>
	<g>
		<polyline class="st19" points="120.8,153.8 120.8,155.8 118.8,155.8 		"/>
		<line class="st20" x1="114.8" y1="155.8" x2="51.3" y2="155.8"/>
		<polyline class="st19" points="49.3,155.8 47.3,155.8 47.3,153.8 		"/>
		<line class="st21" x1="47.3" y1="150.6" x2="47.3" y2="139.5"/>
		<polyline class="st19" points="47.3,137.9 47.3,135.9 49.3,135.9 		"/>
		<line class="st20" x1="53.3" y1="135.9" x2="116.8" y2="135.9"/>
		<polyline class="st19" points="118.8,135.9 120.8,135.9 120.8,137.9 		"/>
		<line class="st21" x1="120.8" y1="141.1" x2="120.8" y2="152.2"/>
	</g>
</g>
<text transform="matrix(1 0 0 1 71.0334 144.2187)" class="st7 st5">Frontend: </text>
<text transform="matrix(1 0 0 1 68.9134 151.4187)" class="st7 st5">SODA-OPT</text>
<text transform="matrix(1 0 0 1 71.6327 178.2346)" class="st7 st5">Backend: </text>
<text transform="matrix(1 0 0 1 58.1027 185.4346)" class="st7 st5">PandA-Bambu HLS</text>
<g>
	<g>
		<polyline class="st1" points="200.1,235.5 200.1,237.5 198.1,237.5 		"/>
		<line class="st2" x1="194.1" y1="237.5" x2="19.9" y2="237.5"/>
		<polyline class="st1" points="17.9,237.5 15.9,237.5 15.9,235.5 		"/>
		<line class="st22" x1="15.9" y1="231.2" x2="15.9" y2="207.6"/>
		<polyline class="st1" points="15.9,205.5 15.9,203.5 17.9,203.5 		"/>
		<line class="st2" x1="21.9" y1="203.5" x2="196.1" y2="203.5"/>
		<polyline class="st1" points="198.1,203.5 200.1,203.5 200.1,205.5 		"/>
		<line class="st22" x1="200.1" y1="209.8" x2="200.1" y2="233.4"/>
	</g>
</g>
<text transform="matrix(1 0 0 1 20.1284 212.909)" class="st4 st5">Chip design</text>
<rect x="81" y="213.2" class="st23" width="54" height="14.6"/>
<text transform="matrix(1 0 0 1 91.3976 222.497)" class="st0 st7 st5">FPGA target</text>
<polygon class="st24" points="106.1,69.5 109.9,69.5 108,73.2 "/>
<polygon class="st24" points="106.1,97.8 109.9,97.8 108,101.5 "/>
<line class="st11" x1="108" y1="98" x2="108" y2="88.5"/>
<line class="st25" x1="108" y1="212.8" x2="108" y2="199.8"/>
<polyline class="st25" points="109.9,209.9 108,212.8 106.1,209.9 "/>
<line class="st25" x1="84.1" y1="169.9" x2="84.1" y2="155.8"/>
<polyline class="st25" points="85.9,167.1 84.1,169.9 82.2,167.1 "/>
<line class="st25" x1="108" y1="126.8" x2="108" y2="116.4"/>
<polyline class="st25" points="85.9,132.9 84.1,135.7 82.2,132.9 "/>
<text transform="matrix(1 0 0 1 142.379 161.2264)" class="st7 st5">Design Space</text>
<text transform="matrix(1 0 0 1 145.369 168.4264)" class="st7 st5">Exploration</text>
<line class="st25" x1="84.1" y1="135.4" x2="84.1" y2="126.8"/>
<line class="st25" x1="84.1" y1="126.8" x2="108" y2="126.8"/>
<line class="st25" x1="84.1" y1="199.8" x2="84.1" y2="189.8"/>
<line class="st25" x1="84.1" y1="199.8" x2="108" y2="199.8"/>
<g>
	<polygon class="st24" points="167.2,174.2 163.5,174.2 165.3,170.6 	"/>
	<polyline class="st11" points="154.2,170.6 154.2,177.3 165.3,177.3 165.3,174.5 	"/>
</g>
<g>
	<polygon class="st24" points="152.3,151.2 156,151.2 154.2,154.9 	"/>
	<polyline class="st11" points="165.3,154.9 165.3,148.1 154.2,148.1 154.2,150.9 	"/>
</g>
</svg>
