<?xml version="1.0" encoding="utf-8"?>
<!-- Generator: Adobe Illustrator 25.0.0, SVG Export Plug-In . SVG Version: 6.00 Build 0)  -->
<svg version="1.1" id="Livello_1" xmlns="http://www.w3.org/2000/svg" xmlns:xlink="http://www.w3.org/1999/xlink" x="0px" y="0px"
	 viewBox="0 0 216.01 253.57" style="enable-background:new 0 0 216.01 253.57;" xml:space="preserve">
<style type="text/css">
	.st0{fill:none;stroke:#000000;stroke-width:0.5;stroke-miterlimit:10;}
	.st1{fill:none;stroke:#000000;stroke-width:0.5;stroke-miterlimit:10;stroke-dasharray:4.0056,4.0056;}
	.st2{fill:none;stroke:#000000;stroke-width:0.5;stroke-miterlimit:10;stroke-dasharray:4.28,4.28;}
	.st3{font-family:'Sohne-Halbfett';}
	.st4{font-size:6px;}
	.st5{fill:#FBF8D1;stroke:#215493;stroke-width:0.8;stroke-miterlimit:10;}
	.st6{font-family:'Sohne-Buch';}
	.st7{fill:#FBF8D1;stroke:#215493;stroke-width:0.6;stroke-miterlimit:10;}
	.st8{fill:#DD5035;}
	.st9{fill:none;stroke:#000000;stroke-width:0.5;stroke-miterlimit:10;stroke-dasharray:4.0533,4.0533;}
	.st10{fill:none;stroke:#5FB157;stroke-width:0.5;stroke-miterlimit:10;}
	.st11{fill:#F8DCCE;stroke:#215493;stroke-width:0.8;stroke-miterlimit:10;}
	.st12{fill:#F8DCCE;stroke:#215493;stroke-width:0.6;stroke-miterlimit:10;}
	.st13{fill:#1C476D;}
	.st14{fill:#4B71B2;}
	.st15{fill:#5DA8DA;}
	.st16{fill:#FFFFFF;}
	.st17{fill:none;stroke:#000000;stroke-width:0.5;stroke-miterlimit:10;stroke-dasharray:4.0798,4.0798;}
	.st18{fill:#F7CD47;}
	.st19{fill:none;stroke:#000000;stroke-width:0.5;stroke-miterlimit:5;}
	.st20{fill:none;stroke:#000000;stroke-width:0.5;stroke-miterlimit:5;stroke-dasharray:4.0928,4.0928;}
	.st21{fill:none;stroke:#000000;stroke-width:0.5;stroke-miterlimit:5;stroke-dasharray:3.1655,3.1655;}
	.st22{fill:none;stroke:#000000;stroke-width:0.5;stroke-miterlimit:10;stroke-dasharray:4.288,4.288;}
	.st23{fill:#C43F52;stroke:#215493;stroke-width:0.8;stroke-miterlimit:10;}
	.st24{fill:#5FB157;}
	.st25{fill:none;stroke:#000000;stroke-width:0.2;stroke-miterlimit:10;}
</style>
<g>
	<g>
		<polyline class="st0" points="200.13,56.57 200.13,58.57 198.13,58.57 		"/>
		<line class="st1" x1="194.12" y1="58.57" x2="19.88" y2="58.57"/>
		<polyline class="st0" points="17.88,58.57 15.88,58.57 15.88,56.57 		"/>
		<line class="st2" x1="15.88" y1="52.29" x2="15.88" y2="20.19"/>
		<polyline class="st0" points="15.88,18.05 15.88,16.05 17.88,16.05 		"/>
		<line class="st1" x1="21.88" y1="16.05" x2="196.13" y2="16.05"/>
		<polyline class="st0" points="198.13,16.05 200.13,16.05 200.13,18.05 		"/>
		<line class="st2" x1="200.13" y1="22.33" x2="200.13" y2="54.43"/>
	</g>
</g>
<text transform="matrix(1 0 0 1 20.1285 24.6078)"><tspan x="0" y="0" class="st3 st4">High-Level</tspan><tspan x="0" y="7.2" class="st3 st4">Framework</tspan></text>
<rect x="81.01" y="30.04" class="st5" width="53.99" height="14.55"/>
<text transform="matrix(1 0 0 1 100.5108 39.2681)" class="st6 st4">PyTorch</text>
<rect x="83.28" y="32.21" class="st7" width="10.2" height="10.2"/>
<g>
	<path class="st8" d="M90.53,35.78l-0.55,0.55c0.9,0.9,0.9,2.34,0,3.23c-0.9,0.9-2.34,0.9-3.23,0c-0.9-0.9-0.9-2.34,0-3.23l0,0
		l1.43-1.43l0.2-0.2l0,0v-1.07l-2.15,2.15c-1.2,1.2-1.2,3.13,0,4.32s3.13,1.2,4.3,0C91.72,38.9,91.72,36.99,90.53,35.78z"/>
	<circle class="st8" cx="89.45" cy="35.26" r="0.4"/>
</g>
<g>
	<g>
		<polyline class="st0" points="200.13,121.35 200.13,123.35 198.13,123.35 		"/>
		<line class="st1" x1="194.12" y1="123.35" x2="19.88" y2="123.35"/>
		<polyline class="st0" points="17.88,123.35 15.88,123.35 15.88,121.35 		"/>
		<line class="st9" x1="15.88" y1="117.3" x2="15.88" y2="70.68"/>
		<polyline class="st0" points="15.88,68.66 15.88,66.66 17.88,66.66 		"/>
		<line class="st1" x1="21.88" y1="66.66" x2="196.13" y2="66.66"/>
		<polyline class="st0" points="198.13,66.66 200.13,66.66 200.13,68.66 		"/>
		<line class="st9" x1="200.13" y1="72.71" x2="200.13" y2="119.32"/>
	</g>
</g>
<text transform="matrix(1 0 0 1 20.1285 76.062)" class="st3 st4">Torch MLIR</text>
<line class="st10" x1="108" y1="71.63" x2="108" y2="45.03"/>
<rect x="81.01" y="73.55" class="st11" width="53.99" height="14.55"/>
<text transform="matrix(1 0 0 1 92.181 82.7851)" class="st6 st4">TorchScript</text>
<rect x="81.01" y="101.9" class="st11" width="53.99" height="14.55"/>
<text transform="matrix(1 0 0 1 100.5107 111.1315)" class="st6 st4">MLIR IR</text>
<rect x="83.28" y="104.07" class="st12" width="10.2" height="10.2"/>
<g id="Full_Color">
	<g>
		<path class="st13" d="M91.57,111.02l-3.19,1.84l-3.19-1.84v-3.69l3.19-1.84l3.19,1.84V111.02z"/>
		<polygon class="st14" points="88.38,106.53 86.85,107.42 87.65,107.88 88.38,107.46 89.11,107.88 89.91,107.42 		"/>
		<polygon class="st15" points="88.38,111.82 89.91,110.93 89.11,110.47 88.38,110.89 87.65,110.47 86.85,110.93 		"/>
		<polygon class="st16" points="88.38,109.18 86.09,107.85 86.09,110.5 86.9,110.03 86.9,109.19 88.38,110.05 89.86,109.19 
			89.86,110.03 90.67,110.5 90.67,107.85 		"/>
	</g>
</g>
<g>
	<g>
		<polyline class="st0" points="200.13,193.44 200.13,195.44 198.13,195.44 		"/>
		<line class="st1" x1="194.12" y1="195.44" x2="19.88" y2="195.44"/>
		<polyline class="st0" points="17.88,195.44 15.88,195.44 15.88,193.44 		"/>
		<line class="st17" x1="15.88" y1="189.36" x2="15.88" y2="134.28"/>
		<polyline class="st0" points="15.88,132.24 15.88,130.24 17.88,130.24 		"/>
		<line class="st1" x1="21.88" y1="130.24" x2="196.13" y2="130.24"/>
		<polyline class="st0" points="198.13,130.24 200.13,130.24 200.13,132.24 		"/>
		<line class="st17" x1="200.13" y1="136.32" x2="200.13" y2="191.4"/>
	</g>
</g>
<text transform="matrix(0 -1 1 0 23.06 168.7509)" class="st3 st4">Synthesizer</text>
<g>
	<rect x="47.26" y="169.93" class="st18" width="73.58" height="19.83"/>
	<g>
		<polyline class="st19" points="120.84,187.76 120.84,189.76 118.84,189.76 		"/>
		<line class="st20" x1="114.75" y1="189.76" x2="51.31" y2="189.76"/>
		<polyline class="st19" points="49.26,189.76 47.26,189.76 47.26,187.76 		"/>
		<line class="st21" x1="47.26" y1="184.6" x2="47.26" y2="173.52"/>
		<polyline class="st19" points="47.26,171.93 47.26,169.93 49.26,169.93 		"/>
		<line class="st20" x1="53.35" y1="169.93" x2="116.79" y2="169.93"/>
		<polyline class="st19" points="118.84,169.93 120.84,169.93 120.84,171.93 		"/>
		<line class="st21" x1="120.84" y1="175.1" x2="120.84" y2="186.18"/>
	</g>
</g>
<g>
	<rect x="47.26" y="135.92" class="st18" width="73.58" height="19.83"/>
	<g>
		<polyline class="st19" points="120.84,153.75 120.84,155.75 118.84,155.75 		"/>
		<line class="st20" x1="114.75" y1="155.75" x2="51.31" y2="155.75"/>
		<polyline class="st19" points="49.26,155.75 47.26,155.75 47.26,153.75 		"/>
		<line class="st21" x1="47.26" y1="150.58" x2="47.26" y2="139.5"/>
		<polyline class="st19" points="47.26,137.92 47.26,135.92 49.26,135.92 		"/>
		<line class="st20" x1="53.35" y1="135.92" x2="116.79" y2="135.92"/>
		<polyline class="st19" points="118.84,135.92 120.84,135.92 120.84,137.92 		"/>
		<line class="st21" x1="120.84" y1="141.08" x2="120.84" y2="152.16"/>
	</g>
</g>
<text transform="matrix(1 0 0 1 71.0334 144.2187)"><tspan x="0" y="0" class="st6 st4">Frontend: </tspan><tspan x="-2.12" y="7.2" class="st6 st4">SODA-OPT</tspan></text>
<text transform="matrix(1 0 0 1 71.6327 178.2346)"><tspan x="0" y="0" class="st6 st4">Backend: </tspan><tspan x="-13.53" y="7.2" class="st6 st4">PandA-Bambu HLS</tspan></text>
<g>
	<g>
		<polyline class="st0" points="200.13,235.52 200.13,237.52 198.13,237.52 		"/>
		<line class="st1" x1="194.12" y1="237.52" x2="19.88" y2="237.52"/>
		<polyline class="st0" points="17.88,237.52 15.88,237.52 15.88,235.52 		"/>
		<line class="st22" x1="15.88" y1="231.23" x2="15.88" y2="207.65"/>
		<polyline class="st0" points="15.88,205.5 15.88,203.5 17.88,203.5 		"/>
		<line class="st1" x1="21.88" y1="203.5" x2="196.13" y2="203.5"/>
		<polyline class="st0" points="198.13,203.5 200.13,203.5 200.13,205.5 		"/>
		<line class="st22" x1="200.13" y1="209.79" x2="200.13" y2="233.37"/>
	</g>
</g>
<text transform="matrix(1 0 0 1 20.1284 212.909)" class="st3 st4">Chip design</text>
<rect x="81.01" y="213.24" class="st23" width="53.99" height="14.55"/>
<text transform="matrix(1 0 0 1 91.3976 222.497)" class="st16 st6 st4">FPGA target</text>
<polygon class="st24" points="106.13,69.55 109.87,69.55 108,73.22 "/>
<polygon class="st24" points="106.13,97.85 109.87,97.85 108,101.52 "/>
<line class="st10" x1="108" y1="97.98" x2="108" y2="88.51"/>
<line class="st25" x1="108" y1="212.77" x2="108" y2="199.78"/>
<polyline class="st25" points="109.87,209.94 108,212.77 106.13,209.94 "/>
<line class="st25" x1="84.05" y1="169.93" x2="84.05" y2="155.75"/>
<polyline class="st25" points="85.92,167.1 84.05,169.93 82.18,167.1 "/>
<line class="st25" x1="108" y1="126.79" x2="108" y2="116.45"/>
<polyline class="st25" points="85.92,132.89 84.05,135.73 82.18,132.89 "/>
<text transform="matrix(1 0 0 1 142.379 161.2264)"><tspan x="0" y="0" class="st6 st4">Design Space</tspan><tspan x="2.99" y="7.2" class="st6 st4">Exploration</tspan></text>
<line class="st25" x1="84.05" y1="135.41" x2="84.05" y2="126.79"/>
<line class="st25" x1="84.05" y1="126.79" x2="108" y2="126.79"/>
<line class="st25" x1="84.05" y1="199.78" x2="84.05" y2="189.76"/>
<line class="st25" x1="84.05" y1="199.78" x2="108" y2="199.78"/>
<g>
	<polygon class="st24" points="167.2,174.23 163.47,174.23 165.33,170.56 	"/>
	<polyline class="st10" points="154.17,170.56 154.17,177.29 165.33,177.29 165.33,174.53 	"/>
</g>
<g>
	<polygon class="st24" points="152.3,151.18 156.04,151.18 154.17,154.85 	"/>
	<polyline class="st10" points="165.33,154.85 165.33,148.12 154.17,148.12 154.17,150.88 	"/>
</g>
</svg>
